<svg width="16" height="12" xmlns="http://www.w3.org/2000/svg" viewBox="0 0 16 12" fill="none">
  <style type="text/css">.st0{fill:#FEFEFE;} .st1{fill:#C8102E;} .st2{fill:#012169;}</style>
  <g>
    <path class="st0" d="M0.83,12h14.34c0.46-0.03,0.83-0.41,0.83-0.88V0.88C16,0.41,15.63,0.03,15.17,0H0.83 C0.37,0.01,0,0.41,0,0.88v10.23C0,11.59,0.37,11.97,0.83,12L0.83,12z"/>
    <polygon class="st1" points="6.9,7.69 6.9,12 9.12,12 9.12,7.69 16,7.69 16,5.48 9.12,5.48 9.12,0 6.9,0 6.9,5.48 0,5.48 0,7.69 6.9,7.69"/>
    <path class="st2" d="M9.99,4.47V0h5.36c0.37,0.01,0.69,0.24,0.82,0.57L9.99,4.47L9.99,4.47z"/>
    <path class="st2" d="M9.99,8.66V12h5.41c0.36-0.02,0.67-0.24,0.8-0.57L9.99,8.66L9.99,8.66z"/>
    <path class="st2" d="M6.13,8.66V12H0.83c-0.36-0.02-0.67-0.25-0.8-0.57L6.13,8.66L6.13,8.66z"/>
    <path class="st2" d="M6.13,4.47V0H0.87C0.5,0.01,0.19,0.24,0.06,0.57L6.13,4.47L6.13,4.47z"/>
    <polygon class="st2" points="0,4.58 2.12,4.58 0,3.21 0,4.58"/>
    <polygon class="st2" points="16,4.58 13.9,4.58 16,3.19 16,4.58"/>
    <polygon class="st2" points="16,9.6 13.9,9.6 16,10.95 16,9.6"/>
    <polygon class="st2" points="0,9.6 2.12,9.6 0,10.94 0,9.6"/>
    <polygon class="st1" points="16,1.22 10.46,4.58 11.7,4.58 16,1.93 16,1.22"/>
    <polygon class="st1" points="5.46,9.6 4.22,9.6 0,12.03 0,12.74 5.46,9.6 5.46,9.6"/>
    <polygon class="st1" points="3.02,4.58 4.26,4.58 0,1.94 0,2.64 3.02,4.58"/>
    <polygon class="st1" points="13.02,9.6 11.78,9.6 16,12.04 16,11.34 13.02,9.6"/>
  </g>
</svg>